<?xml version="1.0" encoding="UTF-8"?>
<svg id="Layer_1" data-name="Layer 1" xmlns="http://www.w3.org/2000/svg" viewBox="0 0 532.3 66.79">
  <defs>
    <style>
      .cls-1 {
        fill: #00bbb4;
      }

      .cls-1, .cls-2 {
        stroke-width: 0px;
      }

      .cls-2 {
        fill: #fff;
      }
    </style>
  </defs>
  <g>
    <path class="cls-1" d="M305.53,65.92V15.29h-18.9V1.3h54.1v13.99h-18.9v50.63h-16.3Z"/>
    <path class="cls-1" d="M398.72,1.15v13.85h-31.16v11.25h21.93l-3.03,13.42h-18.75v12.55h31.74v13.85h-48.04V1.3h47.32v-.14Z"/>
    <path class="cls-1" d="M406.51,33.47c0-19.04,15-33.47,34.48-33.47,10.24,0,18.32,3.32,24.52,9.09l-10.96,10.96c-3.03-3.32-7.5-5.48-13.56-5.48-10.39,0-17.74,7.36-17.74,18.75s7.36,18.9,17.74,18.9c6.06,0,10.67-1.88,13.99-5.48l10.96,10.96c-6.35,5.77-13.99,9.09-24.67,9.09-19.91.14-34.77-14.28-34.77-33.32Z"/>
    <path class="cls-1" d="M476.47,65.92V1.15h16.3v24.67h23.22V1.15h16.3v64.77h-16.3v-26.25h-23.22v26.25h-16.3Z"/>
  </g>
  <g>
    <path class="cls-2" d="M50.49,22.07c0,5.91-2.02,10.96-6.06,15-4.04,4.04-9.09,6.2-15.29,6.2H9.09l-3.61,22.79H0V1.3h29.72c5.91,0,10.82,2.02,14.86,5.91,3.75,3.89,5.91,8.94,5.91,14.86ZM41.26,22.07c0-3.75-1.44-6.78-4.04-9.38-2.6-2.6-5.91-3.89-9.81-3.89H9.09v26.83h17.89c4.04,0,7.5-1.3,10.24-3.89,2.74-2.6,4.04-5.91,4.04-9.67Z"/>
    <path class="cls-2" d="M95.79,21.64h6.2v44.29h-8.37v-6.2c-1.44,2.02-3.32,3.75-5.77,4.9-2.45,1.44-5.63,2.16-9.09,2.16-4.04,0-7.65-1.01-10.96-3.03-3.32-2.02-5.91-4.76-7.79-8.37-1.88-3.32-2.74-7.36-2.74-11.68s.87-8.22,2.74-11.68c2.02-3.61,4.47-6.35,7.79-8.37,3.32-2.16,7.07-3.03,10.96-3.03,3.46,0,6.49.72,9.09,2.16,2.31,1.15,4.04,2.89,5.77,4.9v-.14l2.16-5.91ZM94.05,43.85c0-3.03-.43-5.63-1.73-7.93-1.15-2.31-2.74-4.04-4.9-5.48-2.16-1.15-4.62-1.73-7.36-1.73s-5.34.72-7.36,1.88c-2.31,1.3-3.89,3.17-5.05,5.48-1.3,2.16-1.88,4.76-1.88,7.79s.58,5.63,1.88,7.79c1.15,2.31,2.74,4.04,5.05,5.34,2.02,1.3,4.62,2.02,7.36,2.02,4.18,0,7.5-1.44,10.24-4.18,2.6-2.89,3.75-6.49,3.75-10.96Z"/>
    <path class="cls-2" d="M148.15,25.68l-5.63,5.63c-.87-.87-1.88-1.73-3.03-2.02-1.15-.43-2.45-.72-3.89-.72-3.17,0-5.63.87-7.65,2.89s-3.03,5.05-3.03,9.09v25.24h-8.37V21.64h6.49l2.02,5.19v.14c.29-.43.43-.72.72-1.15,2.6-3.32,6.35-4.9,11.25-4.9,2.31,0,4.33.43,6.06,1.15,1.73.72,3.46,2.02,5.05,3.61Z"/>
    <path class="cls-2" d="M192.15,21.64h6.2v44.29h-8.37v-6.2c-1.44,2.02-3.32,3.75-5.77,4.9-2.45,1.44-5.63,2.16-9.09,2.16-4.04,0-7.65-1.01-10.96-3.03-3.32-2.02-5.91-4.76-7.79-8.37-1.88-3.32-2.74-7.36-2.74-11.68s.87-8.22,2.74-11.68c2.02-3.61,4.47-6.35,7.79-8.37,3.32-2.16,7.07-3.03,10.96-3.03,3.46,0,6.49.72,9.09,2.16,2.31,1.15,4.04,2.89,5.77,4.9v-.14l2.16-5.91ZM190.42,43.85c0-3.03-.43-5.63-1.73-7.93-1.15-2.31-2.74-4.04-4.9-5.48-2.16-1.15-4.62-1.73-7.36-1.73s-5.34.72-7.36,1.88c-2.31,1.3-3.89,3.17-5.05,5.48-1.3,2.16-1.88,4.76-1.88,7.79s.58,5.63,1.88,7.79c1.15,2.31,2.74,4.04,5.05,5.34,2.02,1.3,4.62,2.02,7.36,2.02,4.18,0,7.5-1.44,10.24-4.18,2.45-2.89,3.75-6.49,3.75-10.96Z"/>
    <path class="cls-2" d="M280.58,37.51v28.42h-8.51v-26.83c0-3.32-.87-5.91-3.03-7.79-2.02-2.02-4.47-2.89-7.5-2.89-2.02,0-3.89.43-5.63,1.44-1.59.87-2.89,2.02-3.89,3.61s-1.44,3.32-1.44,5.63v26.83h-8.37v-26.83c0-3.32-1.01-5.91-3.03-7.79-2.02-2.02-4.62-2.89-7.65-2.89-2.02,0-3.89.43-5.48,1.44-1.73.87-2.89,2.02-3.89,3.61s-1.44,3.32-1.44,5.63v26.83h-8.37V21.64h6.49l2.02,5.19v.29c1.3-1.73,2.74-3.17,4.9-4.33,2.45-1.3,5.48-2.02,8.51-2.02s6.06.72,8.51,2.02c2.45,1.3,4.62,3.32,5.91,5.77q0,.14.14.29v-.14c1.73-2.45,3.89-4.33,6.49-5.91,2.6-1.3,5.48-2.02,8.66-2.02s6.2.72,8.66,2.02c2.6,1.3,4.62,3.32,6.2,5.77,1.01,2.45,1.73,5.48,1.73,8.94Z"/>
  </g>
</svg>