<?xml version="1.0" encoding="UTF-8"?>
<svg id="Layer_1" xmlns="http://www.w3.org/2000/svg" version="1.1" xmlns:xlink="http://www.w3.org/1999/xlink" viewBox="0 0 300 120">
  <!-- Generator: Adobe Illustrator 29.5.0, SVG Export Plug-In . SVG Version: 2.1.0 Build 137)  -->
  <defs>
    <style>
      .st0 {
        fill: #3c3c3c;
      }

      .st1 {
        isolation: isolate;
      }

      .st2 {
        fill: url(#Adsız_degrade);
      }

      .st3 {
        fill: #4d008c;
        fill-rule: evenodd;
      }

      .st4 {
        fill: #ff671d;
      }
    </style>
    <linearGradient id="Adsız_degrade" data-name="Adsız degrade" x1="86" y1="-157" x2="119.4" y2="-129.4" gradientTransform="translate(34.7 -46.9) rotate(-21.5) scale(1 -1)" gradientUnits="userSpaceOnUse">
      <stop offset="0" stop-color="#ff7420"/>
      <stop offset=".9" stop-color="#c4410d"/>
    </linearGradient>
  </defs>
  <g id="finrota">
    <g>
      <path class="st4" d="M9,25.7h0c0,.1-9,.1-9,.1v11h9v42.2h12.4v-42.2h10.9v-11h-10.9c0-7.8,1.1-10,10.9-10V4.4h-1.1c-16.1,0-22.2,6-22.2,21.3Z"/>
      <circle class="st4" cx="47.2" cy="15.5" r="6.4"/>
      <rect class="st4" x="41.2" y="25.8" width="12.3" height="53.2"/>
      <path class="st4" d="M90.2,24.7c-6.9,0-12.3,3-15.9,7.6v-6.6h-12.2v53.2h12.3v-29.2c0-9.3,5.5-14.5,12.4-14.5s12,5.1,12,13.4v30.3h12.4v-31.5c0-14.5-7.7-22.8-21-22.8h0Z"/>
      <path class="st4" d="M287.7,25.8v6.3c-3.9-4.7-10.1-7.4-17.1-7.4-13.4,0-26.4,10.1-26.4,27.8s13.4,27.6,26.2,27.6,13.3-3,17.3-8v6.9h12.2V25.8h-12.3ZM272.5,68.8c-9.1,0-16.1-7.2-16.1-16.5s7-16.4,16.1-16.4,15.9,7.2,15.9,16.4-6.7,16.5-15.9,16.5h0Z"/>
      <path class="st4" d="M241.5,36.6v-10.8h-10.8v-10.3h-12.4v10.3h-16.4s5.5,3.7,8.6,10.8h7.7v20.2c0,16.9,5,22.2,21.5,22.2h1.7v-11.5c-9.4,0-10.8-1.5-10.8-10.7v-20.2h10.8s0,.1,0,0Z"/>
      <path class="st4" d="M148.9,39.2c1.7-3.9,4.1-7.4,7.1-10.3-4.7-3.6-10.2-3.2-10.2-3.2-5.2.3-11.2,2.7-13.6,8v-7.9h-12.2v53.2h12.3v-28.4c0-8.6,6.1-15.3,14.3-12.8.9.2,1.7.7,2.3,1.3h0Z"/>
      <path class="st2" d="M170.3,27.1c-14.2,5.7-21.2,21.8-15.7,36,5.7,14.2,21.7,21.2,36,15.7,14.2-5.6,21.2-21.8,15.7-36-5.7-14.2-21.7-21.2-36-15.7ZM186.5,68.2c-8.4,3.4-18-.8-21.3-9.3-3.3-8.5.8-18,9.2-21.3,8.4-3.4,18,.8,21.3,9.3,3.3,8.5-.8,18-9.2,21.3Z"/>
      <path class="st4" d="M165.1,29.9s17.8-8.7,28.2,10.8c1.2,2.4,3.2,6.7,3.3,10.1l-6.4.3,14.5,15.4,10.1-18.1-5.7.9s-1.4-18.8-24-23.7c0,0-10.1-2.3-20.2,4.4h0Z"/>
    </g>
    <path class="st3" d="M173.3,100.8l-6.5-7.3h-1.6v16.7h4.3v-7.4l3.5,3.7h.5l3.5-3.7v7.4h4.3v-16.7h-1.5l-6.7,7.3h0ZM132.6,104.3c4.2-2.8,3-10.7-3.5-10.7h-7.3v16.6h2l2.3-4.9h2.2l2.8,4.9h4.8v-.6s-3.3-5.2-3.3-5.3ZM129,101.5h-3.1v-4.1h3.1c2.5,0,2.3,4.1,0,4.1M111.3,110.2h4.1v-.6l-7.5-16.2h-1.9l-7.5,16.2v.6h4.1l1-2.1h6.5s1,2.2,1.1,2.1ZM108.9,104.5h-3.8l1.9-4.4s1.9,4.4,1.9,4.4ZM83.1,110.2l2.3-4.3h3.1c8,0,8-12.3,0-12.4h-7.3v16.6s2,0,2,0ZM88.4,102.1h-3.1v-4.8h3.1c2.5,0,2.3,4.8,0,4.8M154.8,110.2h4.2v-.6l-7.5-16.2h-1.8l-7.5,16.2v.6h4.2l1-2.1h6.6l1,2.2h0ZM152.4,104.5h-3.8l1.9-4.4,1.9,4.4h0Z"/>
    <g class="st1">
      <path class="st0" d="M63.4,98.7h1.6v11.9h-2.3v-1.6c-.4.6-.9,1-1.5,1.3-.7.4-1.5.6-2.4.6s-2-.3-2.9-.8c-.9-.5-1.6-1.3-2.1-2.2-.5-.9-.7-2-.7-3.1s.2-2.2.7-3.1c.5-1,1.2-1.7,2.1-2.2.9-.6,1.9-.8,3-.8s1.7.2,2.4.6c.6.3,1.1.8,1.5,1.3h0c0,0,.6-1.6.6-1.6ZM62.9,104.7c0-.8-.1-1.5-.5-2.1-.3-.6-.7-1.1-1.3-1.5-.6-.3-1.2-.5-2-.5s-1.4.2-2,.5c-.6.3-1,.9-1.4,1.5-.3.6-.5,1.3-.5,2.1s.2,1.5.5,2.1c.3.6.7,1.1,1.4,1.4.6.3,1.2.6,2,.6,1.1,0,2-.4,2.7-1.1.7-.7,1-1.7,1-2.9h0Z"/>
      <path class="st0" d="M197.5,104.6c0-3.5,2.7-6.2,6.2-6.2s3.4.7,4.6,2l-1.5,1.5c-.7-.9-1.8-1.3-3.1-1.3-2.3,0-3.9,1.6-3.9,4s1.6,4,3.9,4,2.3-.5,3.1-1.3l1.5,1.5c-1.1,1.3-2.7,2-4.6,2-3.5,0-6.2-2.7-6.2-6.2h0Z"/>
      <path class="st0" d="M209.5,104.6c0-3.4,2.7-6.1,6.2-6.1s6.2,2.7,6.2,6.1-2.7,6.2-6.2,6.2-6.2-2.7-6.2-6.2ZM219.6,104.6c0-2.3-1.7-4-3.9-4s-3.9,1.7-3.9,4,1.6,4,3.9,4,3.9-1.7,3.9-4Z"/>
      <path class="st0" d="M242.8,103v7.6h-2.3v-7.2c0-.9-.2-1.6-.8-2.1-.6-.5-1.2-.8-2-.8s-1,.1-1.5.4c-.4.2-.8.6-1,1s-.4.9-.4,1.5v7.2h-2.3v-7.2c0-.9-.3-1.6-.8-2.1-.5-.5-1.2-.8-2-.8s-1,.1-1.5.4c-.5.2-.8.6-1,1s-.4.9-.4,1.5v7.2h-2.3v-11.9h1.7l.5,1.4h0c.3-.4.8-.8,1.3-1.1.7-.3,1.5-.6,2.3-.6s1.6.2,2.3.6c.7.3,1.2.9,1.6,1.5,0,0,0,0,0,0h0c.5-.7,1-1.2,1.7-1.6.7-.3,1.5-.6,2.3-.6s1.7.2,2.3.6c.7.3,1.2.9,1.7,1.5s.6,1.5.6,2.4Z"/>
      <path class="st0" d="M257.9,104.7c0,1.2-.2,2.2-.8,3.1-.5,1-1.2,1.6-2,2.2-.9.6-1.8.8-3,.8s-1.7-.2-2.4-.6c-.7-.3-1.2-.8-1.6-1.4v.4l-.6,6.3h-1.7v-16.9h1.6l.6,1.6h0c.4-.5.9-1,1.6-1.4.7-.3,1.5-.6,2.4-.6s2,.3,3,.8c.8.6,1.6,1.3,2,2.2.5.9.8,2,.8,3.2ZM255.6,104.6c0-.8-.1-1.5-.5-2.1-.3-.6-.8-1.1-1.4-1.5-.6-.3-1.2-.5-1.9-.5s-1.4.2-2,.5c-.6.3-1,.8-1.3,1.5-.3.6-.5,1.3-.5,2.1s.2,1.5.5,2.1c.2.6.7,1.1,1.3,1.5.6.3,1.2.5,1.9.5s1.4-.2,2-.5c.6-.4,1-.8,1.4-1.5.3-.6.5-1.3.5-2.1Z"/>
      <path class="st0" d="M270,98.7h1.7v11.9h-2.3v-1.6c-.4.6-.9,1-1.6,1.3-.7.4-1.5.6-2.4.6s-2-.3-2.9-.8c-.9-.5-1.6-1.3-2.1-2.2-.5-.9-.8-2-.8-3.1s.2-2.2.8-3.1c.5-1,1.2-1.7,2.1-2.2.9-.6,1.9-.8,3-.8s1.7.2,2.4.6c.6.3,1.1.8,1.6,1.3h0c0,0,.6-1.6.6-1.6h0ZM269.6,104.7c0-.8-.1-1.5-.5-2.1-.3-.6-.8-1.1-1.3-1.5-.6-.3-1.2-.5-2-.5s-1.4.2-2,.5c-.6.3-1,.9-1.4,1.5-.3.6-.5,1.3-.5,2.1s.1,1.5.5,2.1c.3.6.8,1.1,1.4,1.4.6.3,1.2.6,2,.6,1.1,0,2-.4,2.7-1.1.7-.7,1-1.7,1-2.9h0Z"/>
      <path class="st0" d="M285.6,103.2v7.3h-2.2v-6.9c0-.9-.3-1.6-.8-2.2-.6-.6-1.3-.9-2.2-.9s-1.1.1-1.6.4c-.5.3-.8.6-1.1,1.1-.2.5-.4,1-.4,1.6v6.9h-2.3v-11.8h1.7l.6,1.5h0c.3-.4.8-.9,1.3-1.1.7-.4,1.5-.6,2.5-.6s1.7.2,2.4.6c.7.5,1.2,1,1.7,1.8.4.7.6,1.5.6,2.3h0Z"/>
      <path class="st0" d="M289.2,115.6l2.9-6-4.7-10.9h2.5l3.4,8.4,3.6-8.4h2.5l-7.8,16.9h-2.5Z"/>
    </g>
  </g>
</svg>