<?xml version="1.0" encoding="UTF-8"?>
<svg id="Layer_1" data-name="Layer 1" xmlns="http://www.w3.org/2000/svg" viewBox="0 0 300 134.51">
  <defs>
    <style>
      .cls-1 {
        fill: #b93042;
      }

      .cls-1, .cls-2, .cls-3, .cls-4 {
        stroke-width: 0px;
      }

      .cls-2 {
        fill: #34454f;
      }

      .cls-3 {
        fill: #4d008c;
        fill-rule: evenodd;
      }

      .cls-4 {
        fill: #3c3c3c;
      }
    </style>
  </defs>
  <g>
    <path class="cls-1" d="M111.92,50.75c0-3.83,3.13-6.96,6.96-6.96s6.96,3.13,6.96,6.96-3.08,6.96-6.96,6.96c-3.83,0-6.96-3.13-6.96-6.96"/>
    <path class="cls-1" d="M132.38,29.25c0-3.04,2.46-5.54,5.54-5.54s5.54,2.5,5.54,5.54-2.5,5.54-5.54,5.54c-3.08-.04-5.54-2.5-5.54-5.54"/>
    <path class="cls-1" d="M118.63,8.79c0-3.71,3-6.71,6.75-6.71s6.71,3,6.71,6.71-3,6.71-6.71,6.71-6.75-3-6.75-6.71"/>
    <path class="cls-1" d="M84.75,26.21c0-5.08,4.12-9.21,9.21-9.21s9.21,4.12,9.21,9.21-4.12,9.21-9.21,9.21c-5.08,0-9.21-4.13-9.21-9.21"/>
    <path class="cls-2" d="M58.38,94.5l-.04-4.5c0-2.25-.04-4.92-.04-7.92,0-5.58,0-9.21.08-11.37.04-2.25.04-3.54.04-3.96v-1.37h-8.54v1.37c0,.29,0,2.21.04,5.62.04,3.08.04,6.04.04,8.83v11.75c-1.21.67-2.87,1.42-4.96,2.25-2.46.96-4.75,1.46-6.79,1.46-1.71,0-2.92-.46-3.58-1.42-.79-1-1.21-2.79-1.29-5.17v-11.08c0-1.04,0-2.29.04-3.71,0-1.08.04-2.25.04-3.54.04-3.04.04-4.75.04-5.04v-1.37h-8.46v1.37c0,.42,0,2.13.04,5.29.04,3.08.04,5.75.04,7.83v12.29c0,3.79,1.08,6.83,3.25,9,2.17,2.17,5.13,3.25,8.83,3.25,2.71,0,5.46-.58,8.17-1.79,1.75-.75,3.29-1.46,4.63-2.17v3.12h8.42v-1.37c.04-3.04,0-5.58,0-7.67"/>
    <path class="cls-2" d="M103.04,97.13c-.04-3.17-.04-5.83-.04-7.96v-12.83c0-3.63-1.08-6.58-3.29-8.71-2.13-2.13-5-3.21-8.5-3.21-1.62,0-3.63.37-6.13,1.21-1.87.58-4.04,1.5-6.96,3v-3.21h-8.46l.04,1.37c.08,3.87.12,7.5.12,10.5v8.58c0,5.21,0,9.25-.04,12,0,1.75-.04,2.96-.08,3.67v2h8.54v-1.87c0-.83-.04-2.67-.08-5.54-.04-3.87-.04-7.17-.04-9.83v-10.33c2-1.08,4-1.96,5.88-2.67,2.13-.79,3.83-1.17,5.12-1.17,2.08,0,3.5.42,4.25,1.29.79.92,1.25,2.54,1.33,4.88v10.58c0,.46-.04,6.75-.04,6.75-.04,1.71-.08,4.62-.08,4.62,0,.92-.04,1.54-.04,1.83l-.04,1.42h8.58v-1.79c0-.63,0-2.17-.04-4.58"/>
    <path class="cls-2" d="M114.5,66.79c.08,3.38.12,6.67.12,10.13v7.92c0,2.75,0,6.21-.04,10.42,0,0-.08,6.75-.12,6.87l-.04,1.42h8.58v-1.38s-.04-5.12-.04-5.12c-.04-3.54-.04-8.37-.04-13.04,0-2.29,0-4.88.04-7.83v-1.08c0-2.58.04-5.38.08-8.33v-1.37h-8.58l.04,1.42Z"/>
    <path class="cls-2" d="M151.75,91.96l-11.96-26.25h-8.54l.75,1.88c3.5,8.83,6.92,16,10.67,23.83,2.29,4.83,5.17,10.83,5.33,11.25l.33.92h6.29l.33-.83c.08-.25,1.83-3.96,5.54-11.96l3.96-8.54c2.17-4.62,4.21-9.13,6.21-13.38l1.75-3.42-9.25-.08-11.42,26.58Z"/>
    <path class="cls-2" d="M209,83.13c0-3.17-.46-5.96-1.25-8.29-.83-2.42-2.08-4.42-3.63-6.04-1.42-1.46-3.12-2.58-5.08-3.33-1.88-.71-4.08-1.08-6.58-1.08s-4.88.46-7.21,1.37c-2.33.96-4.33,2.33-5.92,4.04-1.75,1.87-3.08,4.04-4.04,6.42-.92,2.33-1.37,4.92-1.37,7.71s.62,5.54,1.83,8.04c1.21,2.38,2.67,4.33,4.38,5.83,2.04,1.88,4.54,3.29,7.67,4.29,3.04,1.04,6.63,1.54,10.75,1.54,1.42,0,2.75-.04,4-.08.87-.08,1.42-.12,1.75-.12l1.29-.08,1.08-7.38-1.71.12c-.29.04-1,.04-2.17.12-1.08.04-2.42.12-3.79.12-2.46,0-4.54-.21-6.25-.63-1.75-.42-3.25-1-4.54-1.79-1.96-1.17-3.46-2.71-4.5-4.58-.75-1.46-1.25-3.08-1.42-4.79h26.67l.04-1.42ZM183.17,77.84c.67-1.79,1.67-3.25,2.96-4.37,1.58-1.46,3.54-2.17,6-2.17s4.33.71,5.75,2.04c1.17,1.13,1.96,2.62,2.42,4.46l-17.12.04h0Z"/>
    <path class="cls-2" d="M239,64.71c-1.75.46-4.04,1.25-6.71,2.29-2.08.83-4.25,1.79-6.46,2.92v-4.54h-8.42l.04,5c0,2.38.04,4.83.04,7.42.04,3.87.04,6.92.04,9.08,0,5.12,0,9.04-.04,11.37,0,0-.04,3.71-.04,3.96v1.37h8.54v-1.42c0-.5-.04-2.67-.08-6.29-.04-3.29-.04-6.5-.04-9.75v-8.46c3.29-1.46,6.17-2.62,8.83-3.54,2.96-1.04,4.96-1.63,6.13-1.92l1.29-.33-1.71-7.54-1.42.37Z"/>
    <path class="cls-2" d="M273.83,73.88c-.79-2-2-3.71-3.58-5-1.63-1.42-3.67-2.42-6.21-3.08-2.38-.58-5.08-.88-8.12-.88-2,0-3.5.04-4.62.08-.67.04-1.17.08-1.54.12l-1.75.12-.92,7.33,3.25-.17c.58-.04,1.08-.04,1.5-.08l.75-.04c.58-.04,1.29-.08,2-.08,1.5,0,2.96.08,4.46.25,1.29.17,2.38.46,3.33.83,1.29.5,2.25,1.21,2.92,2.21.46.67.79,1.46,1,2.42-2.92.25-5.54.62-7.83,1.08-2.79.5-4.96,1.08-6.71,1.79-2.75,1.08-4.92,2.54-6.54,4.29-1.63,1.92-2.46,4.17-2.46,6.67s.71,4.54,2.12,6.29c1.33,1.67,3.08,2.96,5.33,3.92,1.58.67,3.46,1.21,5.58,1.63,2.12.38,4.25.54,6.33.54,3.54,0,6.13-.08,8.08-.25,1.13-.12,2-.21,2.67-.25l.83-.08,1.21-.17v-1.21c0-.29,0-2.21.04-5.87.04-3.46.04-8.08.04-14.17,0-3.63-.38-6.29-1.17-8.25M266.46,84.84v12.33l-.92.04c-.71.04-1.29.04-1.75.04-1.67,0-3.17-.08-4.5-.25-1.42-.17-2.62-.42-3.71-.79-1.37-.42-2.42-1.04-3.17-1.87-.71-.75-1.04-1.67-1.04-2.92,0-1.08.38-1.92,1.21-2.67.92-.87,1.96-1.5,3.17-1.92,1.75-.67,3.87-1.13,6.5-1.5,1.88-.25,3.21-.37,4.21-.5"/>
  </g>
  <g>
    <g>
      <path class="cls-4" d="M209.33,122.29l-.79.83c-.58-.58-1.29-.92-2.17-.92-1.58,0-2.79,1.25-2.79,2.92s1.21,2.92,2.79,2.92c.83,0,1.63-.38,2.21-.92l.75.83c-.75.79-1.75,1.25-2.92,1.25-2.42,0-4.08-1.75-4.08-4.08s1.67-4.08,4.08-4.08c1.17,0,2.21.46,2.92,1.25Z"/>
      <path class="cls-4" d="M219,125.17c0,2.33-1.79,4.08-4.17,4.08s-4.13-1.75-4.13-4.08,1.75-4.08,4.13-4.08c2.42-.04,4.17,1.71,4.17,4.08ZM211.96,125.17c0,1.71,1.25,2.92,2.88,2.92s2.88-1.25,2.88-2.92-1.25-2.92-2.88-2.92-2.88,1.17-2.88,2.92Z"/>
      <path class="cls-4" d="M234.46,124.21v4.92h-1.25v-4.46c0-1.5-.83-2.38-2.25-2.38-1.33,0-2.42.92-2.42,2.42v4.42h-1.25v-4.46c0-1.5-.83-2.38-2.25-2.38-1.33,0-2.42.92-2.42,2.42v4.42h-1.25v-7.88h1.25v1.13c.67-.96,1.67-1.29,2.67-1.29,1.37,0,2.46.62,2.96,1.67.63-1.21,1.88-1.67,2.96-1.67,1.88-.04,3.25,1.21,3.25,3.13Z"/>
      <path class="cls-4" d="M245.33,125.17c0,2.38-1.71,4.08-3.96,4.08-1.29,0-2.25-.5-2.88-1.33v4.5h-1.25v-11.21h1.25v1.17c.63-.79,1.58-1.33,2.88-1.33,2.25,0,3.96,1.71,3.96,4.13ZM238.46,125.17c0,1.67,1.17,2.92,2.83,2.92s2.83-1.33,2.83-2.92-1.13-2.92-2.83-2.92c-1.71-.04-2.83,1.21-2.83,2.92Z"/>
      <path class="cls-4" d="M255.08,129.09h-1.25v-1.17c-.62.79-1.58,1.33-2.88,1.33-2.25,0-3.96-1.71-3.96-4.08s1.71-4.08,3.96-4.08c1.29,0,2.25.54,2.88,1.33v-1.17h1.25v7.83ZM248.29,125.17c0,1.67,1.13,2.92,2.83,2.92s2.83-1.29,2.83-2.92-1.17-2.92-2.83-2.92c-1.71-.04-2.83,1.25-2.83,2.92Z"/>
      <path class="cls-4" d="M265.21,124.21v4.92h-1.25v-4.46c0-1.5-.83-2.38-2.25-2.38-1.33,0-2.42.92-2.42,2.42v4.42h-1.25v-7.88h1.25v1.13c.67-.96,1.67-1.29,2.67-1.29,1.87-.04,3.25,1.21,3.25,3.13Z"/>
      <path class="cls-4" d="M268.58,132.42h-1.37l2.92-5.08-3.63-6.17h1.37l2.92,4.96,2.79-4.96h1.37l-6.37,11.25Z"/>
    </g>
    <path class="cls-4" d="M109.75,129.09h-1.25v-1.17c-.63.79-1.58,1.33-2.87,1.33-2.25,0-3.96-1.71-3.96-4.08s1.71-4.08,3.96-4.08c1.29,0,2.25.54,2.87,1.33v-1.17h1.25v7.83ZM102.96,125.17c0,1.67,1.13,2.92,2.83,2.92s2.83-1.29,2.83-2.92-1.17-2.92-2.83-2.92c-1.71-.04-2.83,1.25-2.83,2.92Z"/>
    <path class="cls-3" d="M186.67,122.21l-4.71-5.25h-1.17v12.17h3.17v-5.46l2.58,2.67h.38l2.58-2.67v5.42h3.17v-12.17h-1.08l-4.92,5.29ZM157,124.84c3.04-2.08,2.21-7.79-2.58-7.79h-5.29v12.12h1.46l1.63-3.54h1.63l2.08,3.54h3.46v-.46l-2.38-3.87ZM154.42,122.75h-2.21v-3.04h2.21c1.83.04,1.71,3.04,0,3.04M141.54,129.09h3.04v-.46l-5.5-11.83h-1.33l-5.46,11.83v.46h3.04l.75-1.54h4.75l.71,1.54ZM139.83,124.92h-2.75l1.37-3.17,1.37,3.17ZM121,129.09l1.62-3.08h2.25c5.83,0,5.83-9,0-9h-5.29v12.12l1.42-.04h0ZM124.83,123.21h-2.21v-3.46h2.21c1.79,0,1.75,3.46,0,3.46M173.17,129.09h3.04v-.46l-5.5-11.83h-1.33l-5.46,11.83v.46h3.04l.75-1.54h4.75l.71,1.54ZM171.46,124.92h-2.75l1.37-3.17,1.37,3.17Z"/>
  </g>
</svg>