<?xml version="1.0" encoding="UTF-8"?>
<svg id="Layer_1" xmlns="http://www.w3.org/2000/svg" version="1.1" viewBox="0 0 709.2 128.5">
  <!-- Generator: Adobe Illustrator 29.1.0, SVG Export Plug-In . SVG Version: 2.1.0 Build 142)  -->
  <defs>
    <style>
      .st0 {
        fill: #010101;
      }
    </style>
  </defs>
  <g id="b">
    <g id="c">
      <g>
        <polygon class="st0" points="210.7 2.1 210.7 86.3 126.4 128.5 126.4 96.9 63.2 128.5 63.2 96.9 0 128.5 0 44.2 84.3 2.1 84.3 33.7 147.5 2.1 147.5 33.7 210.7 2.1"/>
        <path class="st0" d="M258.1,86.3V1.9h22.9l21.7,60.6L324,1.9h23v84.4h-15.7l.5-67.6-23.6,67.6h-11.2l-23.7-67.6.5,67.6h-15.6Z"/>
        <path class="st0" d="M417.9,86.3h-14v-8.3c-2.6,4.9-8.2,10.4-19.5,10.3-20.5-.1-24.4-15.7-24.4-26.7V23.7h14.9v34.1c0,9.2,3.1,16.5,13.7,16.4,10.7,0,14.4-7.1,14.4-16V23.7h14.9v62.6h0,0Z"/>
        <path class="st0" d="M430.8,1.9h14.9v45.6s21.6-23.8,21.6-23.8h17.9l-26,27.6,26.1,35h-17.1l-22.5-31.2v31.2h-14.9V1.9h0Z"/>
        <path class="st0" d="M498.6,60c.7,10,9.6,15.6,18.1,15.5,7.3,0,12.2-3.3,15.1-8.4h15.4c-3,7-7.4,12.2-12.7,15.7-5.2,3.7-11.4,5.5-17.9,5.5-19.3,0-33.1-15.6-33.1-33.1s13.9-33.4,32.9-33.4,17.6,3.5,23.4,9.6c7.6,7.9,10.5,17.7,9.2,28.6h-50.4,0ZM534.3,48.6c-.6-5.9-6.8-14.3-17.8-14.1-11.1,0-17.1,8-17.7,14.1h35.5Z"/>
        <path class="st0" d="M558.1,1.9h14.9v84.4s-14.9,0-14.9,0V1.9Z"/>
        <path class="st0" d="M585.5,1.9h14.9v84.4h-14.9V1.9Z"/>
        <path class="st0" d="M623.9,60c.7,10,9.6,15.6,18.1,15.5,7.3,0,12.2-3.3,15.1-8.4h15.4c-3,7-7.4,12.2-12.7,15.7-5.2,3.7-11.4,5.5-17.9,5.5-19.3,0-33.1-15.6-33.1-33.1s13.9-33.4,32.9-33.4,17.6,3.5,23.4,9.6c7.6,7.9,10.5,17.7,9.2,28.6h-50.4,0ZM659.6,48.6c-.6-5.9-6.8-14.3-17.8-14.1-11.1,0-17.1,8-17.7,14.1h35.5Z"/>
        <path class="st0" d="M684.4,35.2h-7.8v-11.5h7.8v-3.5c0-18.6,14.1-19.7,24.9-19.8v11.5c-3.8,0-9.9,0-9.9,8.8v3.1h9.9v11.5h-9.9v51.1h-14.9v-51.1h0,0Z"/>
        <path class="st0" d="M383.9,0h-14v15.2h14V0Z"/>
        <path class="st0" d="M407.9,0h-14v15.2h14V0Z"/>
      </g>
    </g>
  </g>
</svg>