<?xml version="1.0" encoding="UTF-8"?>
<svg id="Layer_1" data-name="Layer 1" xmlns="http://www.w3.org/2000/svg" viewBox="0 0 300 120">
  <defs>
    <style>
      .cls-1 {
        fill: #00a2e1;
        fill-rule: evenodd;
        stroke-width: 0px;
      }
    </style>
  </defs>
  <path class="cls-1" d="M71.3,83.15h-9.26v-32.5c0-1.23-.46-2.28-1.39-3.15-.86-.92-1.91-1.39-3.15-1.39h-23.24v37.04h-9.26v-46.3h32.78c3.64,0,6.79,1.36,9.44,4.08,2.72,2.66,4.08,5.8,4.08,9.44v32.78ZM275,83.15h-9.26v-32.5c0-1.23-.46-2.28-1.39-3.15-.87-.92-1.91-1.39-3.15-1.39h-13.98v37.04h-9.26v-37.04h-13.98c-1.23,0-2.31.47-3.24,1.39-.86.86-1.29,1.92-1.29,3.15v32.5h-9.26v-32.78c0-3.64,1.36-6.79,4.08-9.44,2.72-2.72,5.86-4.07,9.44-4.08h37.78c3.64,0,6.79,1.36,9.45,4.08,2.72,2.66,4.07,5.8,4.08,9.44v32.78ZM200.91,46.11h-9.26v-9.26h9.26v9.26ZM200.93,83.15h-9.26v-32.43h9.26v32.43ZM126.85,83.15h-32.78c-3.58,0-6.73-1.33-9.44-3.98-2.72-2.72-4.08-5.9-4.08-9.54v-32.78h46.3v9.26h-37.04v9.26h37.04v9.26h-37.04v4.73c0,1.24.43,2.31,1.29,3.24.93.86,2.01,1.3,3.24,1.3h32.5v9.26ZM145.37,55.37h23.24c1.17,0,2.22-.46,3.15-1.39.93-.93,1.39-1.98,1.39-3.15,0-1.3-.43-2.41-1.29-3.34-.86-.92-1.95-1.39-3.24-1.39h-23.24v9.26ZM136.11,36.85h32.78c3.58,0,6.73,1.36,9.44,4.08,2.72,2.72,4.08,5.86,4.08,9.44,0,3.77-1.17,6.98-3.52,9.63,2.35,2.66,3.52,5.62,3.52,8.89v.74c0,3.58-1.36,6.73-4.08,9.44-2.65,2.72-5.8,4.08-9.44,4.08h-32.78v-46.3ZM158.95,64.63h-13.58v9.26h23.24c1.24,0,2.28-.47,3.15-1.39.93-.93,1.39-1.98,1.39-3.15,0-1.24-.46-2.32-1.39-3.24-.86-.99-1.91-1.48-3.15-1.48h-9.66Z"/>
</svg>