<?xml version="1.0" encoding="UTF-8"?>
<svg id="Layer_1" data-name="Layer 1" xmlns="http://www.w3.org/2000/svg" viewBox="0 0 300 120">
  <defs>
    <style>
      .cls-1 {
        fill: #26d07c;
        stroke-width: 0px;
      }
    </style>
  </defs>
  <g id="kredim">
    <g>
      <path class="cls-1" d="M299.98,60.1c-.48-9.93-7.61-14.91-15.16-17.32-3.78-1.21-7.83-1.43-11.71-.64-4.11.84-7.95,2.81-11.09,5.7-1.46,1.35-1.68,1.24-3.21-.09-7.46-6.49-16.01-7.91-24.71-4.1-.95.41-1.84.88-2.69,1.37-.15-1.19-1.16-2.12-2.39-2.12h-5.55c-1.33,0-2.43,1.09-2.43,2.43v48.13c0,1.33,1.09,2.43,2.43,2.43h5.55c1.33,0,2.43-1.09,2.43-2.43v-34.01c.74-3.08,2.49-5.44,5.29-7.13,3.91-2.36,8.53-2.51,12.34-.4,3.4,1.87,5.64,5.24,6.26,9.21v31.02c0,1.33,1.09,2.43,2.43,2.43h5.55c1.33,0,2.43-1.09,2.43-2.43v-31.77c.65-3.64,2.51-6.3,5.73-8.21,3.75-2.21,8.67-2.21,12.54.01,2.75,1.58,4.6,4.03,5.46,7.09.19.69.25,1.4.25,2.11v31.81c0,1.31,1.08,2.39,2.39,2.39h5.47c1.31,0,2.39-1.08,2.39-2.39v-19.33s0-8.26,0-10.98c0,0,.05-1.67,0-2.79Z"/>
      <path class="cls-1" d="M189,24.12h-5.55c-1.33,0-2.43,1.09-2.43,2.43v20.93c-.23.15-.53.18-.79,0-12.97-9.36-27.22-6.03-35.45,1.51-10.1,9.26-11.8,23.93-4.04,34.88,4.9,6.92,11.68,10.84,20.16,11.67.95.09,1.89.14,2.82.14,6.13,0,11.72-2.04,16.96-6.18.1-.08.22-.1.33-.09v3.85c0,1.33,1.09,2.43,2.43,2.43h5.55c1.33,0,2.43-1.09,2.43-2.43V26.54c0-1.33-1.09-2.43-2.43-2.43ZM163.68,86.83h0c-4.68,0-9.09-1.84-12.41-5.19-3.45-3.48-5.33-8.16-5.29-13.17.04-4.85,1.99-9.41,5.49-12.85,3.35-3.29,7.69-5.1,12.23-5.1.05,0,.11,0,.16,0,4.66.04,9.07,1.98,12.41,5.44,2.44,2.53,4.06,5.64,4.76,8.99v7.61c-1.73,8.14-8.85,14.27-17.34,14.27Z"/>
      <path class="cls-1" d="M125.02,78.04c-3.77.07-6.12.7-8.48,3.51-4.03,4.8-9.61,6.57-16.15,5.12-6.51-1.45-10.97-5.64-13.26-12.45-.45-1.33-.31-1.67-.25-1.74.06-.08.38-.36,1.99-.33,6.91.1,13.93.1,20.72.09,5.9,0,12-.01,18,.06,1.19.01,2.53-.09,3.37-.99.83-.88.85-2.22.77-3.4-.59-8.13-4.34-15.27-10.56-20.1-6.26-4.86-14.17-6.74-22.29-5.28-6.17,1.11-11.83,4.33-15.96,9.09-4.13,4.76-6.45,10.74-6.53,16.85-.08,6.2,2.02,12.29,5.92,17.15,3.9,4.86,9.43,8.27,15.55,9.61,2.08.45,4.15.67,6.19.67,10.9,0,20.8-6.26,25.32-16.56l.26-.6c.14-.31-.09-.66-.43-.66h-4.18ZM119.74,63.44c-2.05,0-4.1,0-6.16,0-8.43,0-17.15,0-25.73.02-.32,0-.55-.3-.46-.6,0-.03.02-.07.03-.1.96-3.35,3.32-6.45,6.63-8.73,3.33-2.29,7.17-3.43,10.83-3.22,7.19.42,13.54,5.33,15.53,11.75.13.43-.21.87-.66.87Z"/>
      <path class="cls-1" d="M206.52,24.93h-.01c-3.51,0-6.41,2.81-6.46,6.26-.02,1.67.69,3.34,1.95,4.58,1.24,1.22,2.88,1.91,4.53,1.91,0,0,.02,0,.03,0,2.78-.02,5.36-1.82,6.11-4.5,1.24-4.4-1.94-8.25-6.15-8.25Z"/>
      <path class="cls-1" d="M209.27,42.9h-5.55c-1.33,0-2.43,1.09-2.43,2.43v48.13c0,1.33,1.09,2.43,2.43,2.43h5.55c1.33,0,2.43-1.09,2.43-2.43v-48.13c0-1.33-1.09-2.43-2.43-2.43Z"/>
      <path class="cls-1" d="M42.77,91.52c-.15-.12-3.41-2.95-4.84-4.4-5.58-5.65-10.91-11.18-16.43-16.77-.93-.91-2.21-2.35-2.21-2.85,0-.51.44-1.14,1.52-2.17,4.64-4.43,9.21-9.09,13.63-13.6,1.16-1.19,2.33-2.38,3.5-3.56.08-.08.2-.17.32-.27.52-.41,1.49-1.16,1.13-2.65h0c-.1-.41-.46-.69-.88-.69h0c-.64,0-1.55-.02-2.17-.03-1.54-.02-2.36-.04-3.77,0-3.03.06-5.3.59-7.67,3.16-3.74,4.06-7.7,8.04-11.54,11.9-.96.97-1.93,1.94-2.89,2.91-.03.03-.04.05-.07.08V26.55c0-1.34-1.09-2.43-2.43-2.43H2.43C1.09,24.12,0,25.21,0,26.55v66.89C0,94.79,1.09,95.88,2.43,95.88h5.55c1.33,0,2.43-1.1,2.43-2.43v-20.72c.12,0,.24.03.34.13.14.15.28.3.43.45l2.89,3c4.56,4.86,8.62,8.84,13.06,13.96,2.81,3.25,5.29,5.44,8.89,5.52,1.67.04,2.64.01,4.48-.01.74,0,1.82-.04,2.58-.04h0c.5,0,.93-.36,1.04-.87h0c.43-1.88-.73-2.83-1.35-3.34Z"/>
      <path class="cls-1" d="M74.49,42.26c-.73-.63-1.75-.62-2.57-.54-11.74,1.11-20.73,7.44-21.16,18.94-.04.17-.06.34-.06.52v32.27c0,1.33,1.09,2.43,2.43,2.43h5.55c1.33,0,2.43-1.09,2.43-2.43v-30.29c.15-6.13,3.91-11.03,9.75-12.02,4.46-.75,4.7-3.23,4.55-6.15-.06-1.07-.17-2.09-.92-2.73Z"/>
    </g>
  </g>
</svg>