<svg width="48" height="48" viewBox="0 0 48 48" fill="none" xmlns="http://www.w3.org/2000/svg">
<path opacity="0.2" d="M43.5 15V31.6669C43.5 32.0204 43.3595 32.3595 43.1095 32.6095C42.8595 32.8595 42.5204 33 42.1669 33H37.5V21C37.5 20.6022 37.342 20.2206 37.0607 19.9393C36.7794 19.658 36.3978 19.5 36 19.5H22.5L16.8994 15.3C16.6397 15.1053 16.3239 15 15.9994 15H12V10.5C12 10.1022 12.158 9.72064 12.4393 9.43934C12.7206 9.15804 13.1022 9 13.5 9H21.9994C22.3239 9 22.6397 9.10527 22.8994 9.3L28.5 13.5H42C42.3978 13.5 42.7794 13.658 43.0607 13.9393C43.342 14.2206 43.5 14.6022 43.5 15Z" fill="#4D008C"/>
<path d="M42 12H29.0006L23.7994 8.1C23.2793 7.71198 22.6482 7.50161 21.9994 7.5H13.5C12.7044 7.5 11.9413 7.81607 11.3787 8.37868C10.8161 8.94129 10.5 9.70435 10.5 10.5V13.5H7.5C6.70435 13.5 5.94129 13.8161 5.37868 14.3787C4.81607 14.9413 4.5 15.7044 4.5 16.5V37.5C4.5 38.2956 4.81607 39.0587 5.37868 39.6213C5.94129 40.1839 6.70435 40.5 7.5 40.5H36.1669C36.918 40.499 37.638 40.2002 38.1691 39.6691C38.7002 39.138 38.999 38.418 39 37.6669V34.5H42.1669C42.918 34.499 43.638 34.2002 44.1691 33.6691C44.7002 33.138 44.999 32.418 45 31.6669V15C45 14.2044 44.6839 13.4413 44.1213 12.8787C43.5587 12.3161 42.7957 12 42 12ZM36 37.5H7.5V16.5H15.9994L21.6 20.7C21.8596 20.8947 22.1754 21 22.5 21H36V37.5ZM42 31.5H39V21C39 20.2044 38.6839 19.4413 38.1213 18.8787C37.5587 18.3161 36.7957 18 36 18H23.0006L17.7994 14.1C17.2793 13.712 16.6482 13.5016 15.9994 13.5H13.5V10.5H21.9994L27.6 14.7C27.8596 14.8947 28.1754 15 28.5 15H42V31.5Z" fill="#4D008C"/>
</svg>
