<svg width="48" height="48" viewBox="0 0 48 48" fill="none" xmlns="http://www.w3.org/2000/svg">
<path opacity="0.2" d="M3 28.5005H9V39.0005H3C2.60218 39.0005 2.22064 38.8425 1.93934 38.5612C1.65804 38.2799 1.5 37.8983 1.5 37.5005V30.0005C1.5 29.6027 1.65804 29.2211 1.93934 28.9398C2.22064 28.6585 2.60218 28.5005 3 28.5005ZM36.1012 7.50051C34.641 7.48337 33.209 7.90249 31.9884 8.70418C30.7678 9.50587 29.8143 10.6536 29.25 12.0005C28.6857 10.6536 27.7322 9.50587 26.5116 8.70418C25.291 7.90249 23.859 7.48337 22.3988 7.50051C18.3131 7.50051 15 10.9336 15 15.0005C15 17.7305 16.3125 20.1961 18.1369 22.5005H26.25C27.2446 22.5005 28.1984 22.8956 28.9016 23.5989C29.6049 24.3021 30 25.2559 30 26.2505C30 27.2451 29.6049 28.1989 28.9016 28.9022C28.1984 29.6054 27.2446 30.0005 26.25 30.0005H27L34.0837 28.373C38.2163 25.3261 43.5 20.4811 43.5 15.0005C43.5 10.9336 40.1869 7.50051 36.1012 7.50051Z" fill="#4D008C"/>
<path d="M43.1869 26.4488C42.6964 26.0708 42.134 25.7965 41.5342 25.6428C40.9343 25.489 40.3094 25.459 39.6975 25.5544C43.2188 21.9994 45 18.4651 45 15.0001C45 10.0369 41.0081 6.00005 36.1012 6.00005C34.7993 5.99188 33.5113 6.26879 32.3277 6.81134C31.1441 7.3539 30.0936 8.14895 29.25 9.14068C28.4064 8.14895 27.3559 7.3539 26.1723 6.81134C24.9887 6.26879 23.7007 5.99188 22.3988 6.00005C17.4919 6.00005 13.5 10.0369 13.5 15.0001C13.5 17.0626 14.1075 19.0669 15.3862 21.1876C14.3389 21.4529 13.3832 21.9972 12.6206 22.7626L8.37937 27.0001H3C2.20435 27.0001 1.44129 27.3161 0.87868 27.8787C0.316071 28.4413 0 29.2044 0 30L0 37.5C0 38.2957 0.316071 39.0588 0.87868 39.6214C1.44129 40.184 2.20435 40.5 3 40.5H22.5C22.6226 40.5001 22.7448 40.485 22.8638 40.455L34.8638 37.455C34.9402 37.4368 35.0149 37.4117 35.0869 37.3801L42.375 34.2788L42.4575 34.2413C43.1579 33.8913 43.7578 33.3687 44.2004 32.7229C44.6431 32.077 44.914 31.329 44.9878 30.5495C45.0615 29.7699 44.9355 28.9845 44.6218 28.267C44.308 27.5496 43.8168 26.9239 43.1944 26.4488H43.1869ZM22.3988 9.00005C23.5605 8.98305 24.701 9.31294 25.6743 9.94755C26.6475 10.5822 27.4094 11.4926 27.8625 12.5626C27.9755 12.8377 28.1678 13.073 28.4148 13.2386C28.6619 13.4042 28.9526 13.4926 29.25 13.4926C29.5474 13.4926 29.8381 13.4042 30.0852 13.2386C30.3322 13.073 30.5245 12.8377 30.6375 12.5626C31.0906 11.4926 31.8525 10.5822 32.8257 9.94755C33.799 9.31294 34.9395 8.98305 36.1012 9.00005C39.2981 9.00005 42 11.7469 42 15.0001C42 18.6582 39.0394 22.7963 33.4388 26.9813L31.3594 27.4594C31.5419 26.6884 31.5475 25.8861 31.3759 25.1126C31.2042 24.3391 30.8597 23.6145 30.3681 22.993C29.8766 22.3716 29.2508 21.8695 28.5376 21.5244C27.8244 21.1792 27.0423 21 26.25 21.0001H18.8775C17.2594 18.8176 16.5 16.8976 16.5 15.0001C16.5 11.7469 19.2019 9.00005 22.3988 9.00005ZM3 30H7.5V37.5H3V30ZM41.1431 31.5394L34.0181 34.5732L22.3125 37.5H10.5V29.1207L14.7431 24.8794C15.0207 24.5996 15.3511 24.3778 15.7152 24.2269C16.0792 24.0759 16.4696 23.9988 16.8638 24.0001H26.25C26.8467 24.0001 27.419 24.2371 27.841 24.6591C28.2629 25.081 28.5 25.6533 28.5 26.2501C28.5 26.8468 28.2629 27.4191 27.841 27.841C27.419 28.263 26.8467 28.5001 26.25 28.5001H21C20.6022 28.5001 20.2206 28.6581 19.9393 28.9394C19.658 29.2207 19.5 29.6022 19.5 30C19.5 30.3979 19.658 30.7794 19.9393 31.0607C20.2206 31.342 20.6022 31.5 21 31.5H27C27.1129 31.4997 27.2254 31.4872 27.3356 31.4626L39.8981 28.5732L39.9563 28.5582C40.3397 28.4517 40.7491 28.4908 41.1054 28.668C41.4618 28.8452 41.7401 29.1479 41.8867 29.5179C42.0333 29.8879 42.0379 30.2991 41.8996 30.6723C41.7613 31.0455 41.4898 31.3543 41.1375 31.5394H41.1431Z" fill="#4D008C"/>
</svg>
