<svg width="48" height="48" viewBox="0 0 48 48" fill="none" xmlns="http://www.w3.org/2000/svg">
<path opacity="0.2" d="M40.3441 23.8931L34.4997 13.5H13.4997L7.65537 23.8931C7.53339 24.1398 7.48164 24.4154 7.50578 24.6895C7.52992 24.9637 7.62903 25.2259 7.79225 25.4475L23.9997 46.5L40.2054 25.4475C40.3689 25.2261 40.4683 24.9639 40.4928 24.6898C40.5173 24.4156 40.4658 24.14 40.3441 23.8931ZM23.9997 28.5C23.2581 28.5 22.533 28.2801 21.9164 27.868C21.2997 27.456 20.819 26.8703 20.5352 26.1851C20.2514 25.4998 20.1771 24.7458 20.3218 24.0184C20.4665 23.291 20.8236 22.6228 21.3481 22.0983C21.8725 21.5739 22.5407 21.2167 23.2682 21.0721C23.9956 20.9274 24.7496 21.0016 25.4348 21.2855C26.12 21.5693 26.7057 22.0499 27.1178 22.6666C27.5298 23.2833 27.7497 24.0083 27.7497 24.75C27.7497 25.7446 27.3547 26.6984 26.6514 27.4017C25.9481 28.1049 24.9943 28.5 23.9997 28.5Z" fill="#4D008C"/>
<path d="M41.6877 23.2294C41.6764 23.205 41.6652 23.1806 41.6521 23.1581L36.0008 13.1063V6C36.0008 5.20435 35.6847 4.44129 35.1221 3.87868C34.5595 3.31607 33.7965 3 33.0008 3H15.0008C14.2052 3 13.4421 3.31607 12.8795 3.87868C12.3169 4.44129 12.0008 5.20435 12.0008 6V13.11L6.34956 23.1581C6.33644 23.1806 6.32519 23.205 6.31206 23.2294C6.06723 23.7222 5.96323 24.2731 6.01154 24.8214C6.05984 25.3696 6.25857 25.8938 6.58581 26.3363L6.60644 26.3625L22.8139 47.415C22.9541 47.5967 23.134 47.7439 23.3399 47.8451C23.5459 47.9463 23.7723 47.999 24.0018 47.999C24.2312 47.999 24.4576 47.9463 24.6636 47.8451C24.8695 47.7439 25.0494 47.5967 25.1896 47.415L41.3952 26.3625L41.4158 26.3363C41.7432 25.8938 41.9418 25.3694 41.9898 24.8211C42.0378 24.2729 41.9332 23.722 41.6877 23.2294ZM33.0008 6V12H15.0008V6H33.0008ZM24.0008 27C23.5558 27 23.1208 26.868 22.7508 26.6208C22.3808 26.3736 22.0924 26.0222 21.9221 25.611C21.7518 25.1999 21.7072 24.7475 21.794 24.311C21.8809 23.8746 22.0952 23.4737 22.4098 23.159C22.7245 22.8443 23.1254 22.6301 23.5619 22.5432C23.9983 22.4564 24.4507 22.501 24.8619 22.6713C25.273 22.8416 25.6244 23.13 25.8716 23.5C26.1189 23.87 26.2508 24.305 26.2508 24.75C26.2508 25.3467 26.0138 25.919 25.5918 26.341C25.1698 26.7629 24.5976 27 24.0008 27ZM25.5008 42.0938V29.7806C26.7093 29.4203 27.7477 28.6371 28.4262 27.5741C29.1047 26.5111 29.3779 25.2394 29.1958 23.9915C29.0138 22.7437 28.3886 21.6031 27.4347 20.7782C26.4808 19.9534 25.2619 19.4995 24.0008 19.4995C22.7397 19.4995 21.5208 19.9534 20.5669 20.7782C19.613 21.6031 18.9879 22.7437 18.8058 23.9915C18.6238 25.2394 18.8969 26.5111 19.5754 27.5741C20.2539 28.6371 21.2923 29.4203 22.5008 29.7806V42.0919L9.00081 24.5625L14.3802 15H33.6233L39.0008 24.5625L25.5008 42.0938Z" fill="#4D008C"/>
</svg>
