<svg width="48" height="48" viewBox="0 0 48 48" fill="none" xmlns="http://www.w3.org/2000/svg">
<path opacity="0.2" d="M24.0003 6V24L8.41154 33C6.8317 30.2636 5.99999 27.1596 6 23.9999C6.00001 20.8402 6.83175 17.7362 8.41162 14.9999C9.99148 12.2635 12.2638 9.99124 15.0002 8.41143C17.7366 6.83162 20.8406 5.99995 24.0003 6Z" fill="#4D008C"/>
<path d="M24 4.5C20.1433 4.5 16.3731 5.64366 13.1664 7.78634C9.95963 9.92903 7.46027 12.9745 5.98436 16.5377C4.50845 20.1008 4.12228 24.0216 4.8747 27.8043C5.62711 31.5869 7.4843 35.0615 10.2114 37.7886C12.9386 40.5157 16.4131 42.3729 20.1957 43.1253C23.9784 43.8777 27.8992 43.4916 31.4623 42.0156C35.0255 40.5397 38.071 38.0404 40.2137 34.8336C42.3564 31.6269 43.5 27.8567 43.5 24C43.4945 18.83 41.4383 13.8732 37.7826 10.2174C34.1268 6.56167 29.1701 4.50546 24 4.5ZM37.4756 14.4881L25.5 21.4012V7.56937C27.8779 7.78738 30.1801 8.51891 32.2477 9.71343C34.3153 10.908 36.099 12.537 37.4756 14.4881ZM22.5 7.56937V23.1319L9.02063 30.9131C7.91408 28.5147 7.39951 25.8857 7.52017 23.2471C7.64082 20.6084 8.39319 18.0374 9.71401 15.7499C11.0348 13.4625 12.8855 11.5256 15.1105 10.1021C17.3354 8.67854 19.8696 7.80997 22.5 7.56937ZM24 40.5C21.3585 40.4989 18.7558 39.8637 16.4109 38.6476C14.0659 37.4316 12.0472 35.6703 10.5244 33.5119L38.9794 17.085C40.1398 19.5989 40.6489 22.3644 40.4598 25.1267C40.2707 27.8891 39.3895 30.5594 37.8975 32.8918C36.4054 35.2241 34.3503 37.1435 31.9217 38.4731C29.493 39.8027 26.7688 40.4997 24 40.5Z" fill="#4D008C"/>
</svg>
